<svg width="70" height="70" viewBox="0 0 70 70" fill="none" xmlns="http://www.w3.org/2000/svg">
<rect width="70" height="70" rx="35" fill="#FF9E1F"/>
<path d="M44.5717 42.8669C44.5075 42.0468 43.7912 41.3694 42.9752 41.3568L37.5741 41.2733C37.2603 41.2686 36.9422 40.9902 36.8936 40.6778L35.7035 33.0524C35.6604 32.7761 35.4049 31.6498 34.0099 31.6498L27.2931 31.9447C26.4083 31.9834 25.689 32.417 25.689 33.634C25.689 33.634 25.7234 47.1187 25.689 47.7328L25.3913 55.3904C25.3599 55.9504 25.1434 56.8569 24.9187 57.3699L22.2001 63.5719C22.0205 63.981 22.8152 62.6205 23 63C23.1846 63.3797 22.8966 60.8921 23.3274 61L24.0001 63.5C24.0001 59.1936 24.3568 63 24.5001 63C25.2307 63 26.1904 60.1205 26.5001 59.4844H28.8241C29.1095 58.898 29.4648 57.9041 29.616 57.2691L31.0743 51.1466L34.6032 56.586C34.8942 57.0345 35.2017 57.8949 35.2614 58.4276L36.5 61.5C36.5971 62.3669 36.6344 63 37.5 63L38.5 63.5C38.9429 63.4984 39.2118 63.8221 39.5 63.5C39.7882 63.178 40.0438 63.4441 40 63L39.5224 57.156C39.4567 56.4883 36.0566 49.508 35.8187 48.8812L35.8187 46.5232L35.7991 44.7683L43.1483 44.4943C43.5585 44.4788 43.9333 44.3018 44.2038 43.9957C44.4741 43.6897 44.6052 43.2938 44.5729 42.8808L44.5717 42.8669Z" fill="white"/>
<path d="M29.4398 30.0408C30.0052 30.0408 30.5644 29.9436 31.1016 29.7518C32.3556 29.3045 33.3617 28.3918 33.9344 27.1816C34.3393 26.3259 34.4921 25.3941 34.3907 24.475L36.0596 24.2852C36.6413 24.2191 37.2317 23.7516 37.4329 23.1976L37.9919 21.6588C38.1113 21.3301 38.0797 20.9975 37.9055 20.746C37.7355 20.501 37.4493 20.3605 37.1201 20.3605C37.082 20.3605 37.0425 20.3623 37.002 20.3662L32.1762 20.8288C31.3807 20.3006 30.4346 20 29.4393 20C28.8741 20 28.3151 20.097 27.7778 20.2887C26.5239 20.7362 25.5178 21.6491 24.945 22.8593C24.3721 24.0693 24.3012 25.4317 24.7452 26.6953C25.4484 28.6964 27.3349 30.0408 29.4398 30.0408Z" fill="white"/>
<path d="M50.5257 37.8968L50.0455 30.9405C49.9884 30.1145 49.2738 29.4424 48.4493 29.4424L39.2236 29.4586C38.8105 29.4593 38.4309 29.6245 38.1545 29.9237C37.8782 30.2229 37.7416 30.6163 37.7704 31.0315L38.2507 37.9878C38.3078 38.814 39.0224 39.4859 39.8441 39.4859L49.0726 39.4697C49.4857 39.469 49.8653 39.304 50.1417 39.0048C50.418 38.7055 50.5544 38.312 50.5257 37.8968Z" fill="white"/>
<rect x="18" y="48" width="35" height="16" fill="#FF9E1F"/>
<rect x="25.7002" y="44" width="10.4" height="6" rx="1" fill="white"/>
</svg>
