<svg width="56" height="56" viewBox="0 0 56 56" fill="none" xmlns="http://www.w3.org/2000/svg">
<rect width="56" height="56" rx="28" fill="#9FB4EB"/>
<path d="M35.0093 33.974C35.1619 34.1165 35.3607 34.1993 35.5694 34.2073C35.778 34.2153 35.9825 34.148 36.1456 34.0177L38.2237 32.3696C38.4957 32.1534 38.6708 31.8382 38.7106 31.493C38.7504 31.1479 38.6517 30.8011 38.4361 30.5286L31.1075 21.2883L30.9364 21.4239C30.8916 21.4602 30.8399 21.4873 30.7845 21.5035C30.7292 21.5198 30.6711 21.5248 30.6137 21.5185C30.5564 21.5122 30.5008 21.4945 30.4503 21.4666C30.3998 21.4387 30.3553 21.401 30.3194 21.3558C30.2836 21.3105 30.257 21.2587 30.2413 21.2031C30.2256 21.1476 30.2211 21.0895 30.228 21.0322C30.2349 20.9749 30.2531 20.9195 30.2815 20.8692C30.3099 20.819 30.348 20.7749 30.3936 20.7395L30.5647 20.6038L27.5789 16.8392C27.3628 16.5672 27.0475 16.3921 26.7024 16.3523C26.3572 16.3125 26.0104 16.4112 25.7379 16.6268L23.6599 18.2748C23.4958 18.404 23.3837 18.5878 23.344 18.7928C23.3043 18.9977 23.3397 19.2101 23.4437 19.3912C23.7104 19.8454 23.8041 20.3806 23.7074 20.8984C23.6107 21.4161 23.3302 21.8815 22.9175 22.2088C22.5048 22.5361 21.9877 22.7033 21.4615 22.6795C20.9354 22.6557 20.4355 22.4426 20.054 22.0795C19.9014 21.937 19.7026 21.8541 19.494 21.8461C19.2853 21.8381 19.0808 21.9054 18.9177 22.0358L16.8396 23.6839C16.5676 23.9001 16.3925 24.2153 16.3527 24.5604C16.3128 24.9056 16.4116 25.2524 16.6271 25.5249L19.6129 29.2894L19.7839 29.1538C19.8288 29.1175 19.8804 29.0904 19.9358 29.0742C19.9912 29.0579 20.0493 29.0529 20.1067 29.0592C20.164 29.0655 20.2196 29.0832 20.2701 29.1111C20.3206 29.139 20.3651 29.1767 20.4009 29.2219C20.4368 29.2672 20.4634 29.319 20.4791 29.3746C20.4947 29.4301 20.4993 29.4882 20.4924 29.5455C20.4855 29.6028 20.4673 29.6582 20.4389 29.7085C20.4105 29.7587 20.3724 29.8028 20.3268 29.8382L20.1557 29.9739L27.4843 39.2143C27.7005 39.4862 28.0158 39.6614 28.3609 39.7012C28.7061 39.741 29.0529 39.6423 29.3253 39.4267L31.4034 37.7786C31.5675 37.6495 31.6796 37.4657 31.7193 37.2607C31.759 37.0557 31.7236 36.8433 31.6196 36.6623C31.3529 36.2081 31.2592 35.6728 31.3559 35.1551C31.4526 34.6373 31.7332 34.1719 32.1458 33.8446C32.5585 33.5174 33.0756 33.3502 33.6018 33.374C34.1279 33.3977 34.6279 33.6108 35.0093 33.974ZM21.8099 28.662C21.7651 28.6983 21.7134 28.7253 21.658 28.7416C21.6027 28.7578 21.5446 28.7629 21.4872 28.7566C21.4299 28.7502 21.3743 28.7326 21.3238 28.7046C21.2733 28.6767 21.2288 28.639 21.1929 28.5938C21.1571 28.5486 21.1305 28.4967 21.1148 28.4412C21.0991 28.3856 21.0946 28.3275 21.1015 28.2702C21.1084 28.2129 21.1266 28.1575 21.155 28.1073C21.1834 28.0571 21.2215 28.0129 21.2671 27.9775L22.0656 27.3442C22.1565 27.2736 22.2716 27.2416 22.3859 27.2554C22.5002 27.2691 22.6045 27.3274 22.676 27.4176C22.7475 27.5078 22.7806 27.6226 22.7679 27.737C22.7553 27.8515 22.698 27.9563 22.6085 28.0287L21.8099 28.662ZM24.0915 26.8525C24.0007 26.9231 23.8856 26.9551 23.7713 26.9413C23.657 26.9276 23.5527 26.8693 23.4812 26.7791C23.4096 26.6889 23.3766 26.5741 23.3893 26.4597C23.4019 26.3452 23.4592 26.2404 23.5487 26.168L24.3473 25.5347C24.3922 25.4984 24.4438 25.4713 24.4992 25.4551C24.5546 25.4389 24.6126 25.4338 24.67 25.4401C24.7274 25.4464 24.7829 25.4641 24.8334 25.492C24.8839 25.5199 24.9284 25.5576 24.9643 25.6028C25.0002 25.6481 25.0267 25.6999 25.0424 25.7555C25.0581 25.811 25.0626 25.8691 25.0557 25.9264C25.0488 25.9837 25.0307 26.0391 25.0022 26.0894C24.9738 26.1396 24.9357 26.1837 24.8901 26.2191L24.0915 26.8525ZM26.3732 25.0429C26.2823 25.1136 26.1672 25.1455 26.0529 25.1318C25.9386 25.118 25.8344 25.0597 25.7629 24.9695C25.6913 24.8793 25.6583 24.7645 25.6709 24.6501C25.6836 24.5357 25.7409 24.4309 25.8304 24.3585L26.6289 23.7252C26.7198 23.6545 26.8349 23.6226 26.9492 23.6364C27.0635 23.6501 27.1677 23.7084 27.2392 23.7986C27.3108 23.8888 27.3438 24.0036 27.3312 24.118C27.3185 24.2324 27.2612 24.3373 27.1717 24.4097L26.3732 25.0429ZM28.6548 23.2334C28.5639 23.3041 28.4488 23.336 28.3345 23.3223C28.2202 23.3085 28.116 23.2502 28.0445 23.16C27.9729 23.0698 27.9399 22.955 27.9525 22.8406C27.9652 22.7262 28.0225 22.6214 28.112 22.549L28.9105 21.9157C29.0014 21.845 29.1165 21.8131 29.2308 21.8268C29.3451 21.8406 29.4493 21.8989 29.5209 21.9891C29.5924 22.0793 29.6255 22.1941 29.6128 22.3085C29.6002 22.4229 29.5429 22.5277 29.4534 22.6001L28.6548 23.2334Z" fill="white"/>
<line x1="1" y1="-1" x2="13.208" y2="-1" transform="matrix(0.773111 -0.634271 0.634285 0.773099 20.499 30.5118)" stroke="white" stroke-width="2" stroke-linecap="square"/>
<line x1="0.6" y1="-0.6" x2="13.608" y2="-0.6" transform="matrix(0.788016 -0.615655 0.615668 0.788005 20.9287 31.4395)" stroke="#9FB4EB" stroke-width="1.2" stroke-linecap="round" stroke-dasharray="2 3"/>
</svg>
