<svg width="56" height="56" viewBox="0 0 56 56" fill="none" xmlns="http://www.w3.org/2000/svg">
<rect width="56" height="56" rx="28" fill="#F29F62"/>
<path d="M28 39C34.0736 39 39 34.0736 39 28C39 21.9264 34.0736 17 28 17C21.9264 17 17 21.9264 17 28C17 34.0736 21.9264 39 28 39ZM27.2143 21.7143C27.2143 21.2821 27.5678 20.9286 28 20.9286C28.4322 20.9286 28.7857 21.2821 28.7857 21.7143V27.6229L32.4197 30.53C32.7575 30.8011 32.8125 31.2961 32.5414 31.6339C32.3882 31.8264 32.1604 31.9286 31.9286 31.9286C31.7557 31.9286 31.5828 31.8735 31.4375 31.7557L27.509 28.6129C27.3243 28.4636 27.2143 28.2397 27.2143 28V21.7143H27.2143Z" fill="white"/>
</svg>
