<svg width="56" height="56" viewBox="0 0 56 56" fill="none" xmlns="http://www.w3.org/2000/svg">
<rect width="56" height="56" rx="28" fill="#4875A7"/>
<path d="M32.3209 17.6875H23.6791C19.9253 17.6875 17.6875 19.9253 17.6875 23.6791V32.3106C17.6875 36.0747 19.9253 38.3125 23.6791 38.3125H32.3106C36.0644 38.3125 38.3022 36.0747 38.3022 32.3209V23.6791C38.3125 19.9253 36.0747 17.6875 32.3209 17.6875ZM23.6172 25.0506C23.6172 24.2153 24.2978 23.5244 25.1434 23.5244C25.9787 23.5244 26.6697 24.205 26.6697 25.0506C26.6697 25.8859 25.9891 26.5769 25.1434 26.5769C24.2978 26.5666 23.6172 25.8859 23.6172 25.0506ZM24.7206 32.1456C24.5247 32.1456 24.3287 32.0734 24.1741 31.9187C23.875 31.6197 23.875 31.135 24.1741 30.8256L30.9287 24.0709C31.2278 23.7719 31.7228 23.7719 32.0219 24.0709C32.3209 24.37 32.3209 24.865 32.0219 25.1641L25.2672 31.9187C25.1125 32.0734 24.9166 32.1456 24.7206 32.1456ZM31.8878 32.4756C31.0525 32.4756 30.3616 31.795 30.3616 30.9494C30.3616 30.1141 31.0422 29.4231 31.8878 29.4231C32.7231 29.4231 33.4141 30.1037 33.4141 30.9494C33.4141 31.795 32.7334 32.4756 31.8878 32.4756Z" fill="white"/>
</svg>
