<svg width="56" height="56" viewBox="0 0 56 56" fill="none" xmlns="http://www.w3.org/2000/svg">
<rect width="56" height="56" rx="28" fill="#98C5E4"/>
<path d="M35 21H34V19C34 18.7348 33.8946 18.4804 33.7071 18.2929C33.5196 18.1054 33.2652 18 33 18C32.7348 18 32.4804 18.1054 32.2929 18.2929C32.1054 18.4804 32 18.7348 32 19V21H24V19C24 18.7348 23.8946 18.4804 23.7071 18.2929C23.5196 18.1054 23.2652 18 23 18C22.7348 18 22.4804 18.1054 22.2929 18.2929C22.1054 18.4804 22 18.7348 22 19V21H21C20.2044 21 19.4413 21.3161 18.8787 21.8787C18.3161 22.4413 18 23.2044 18 24V25H38V24C38 23.2044 37.6839 22.4413 37.1213 21.8787C36.5587 21.3161 35.7956 21 35 21Z" fill="white"/>
<path d="M18 35C18 35.7956 18.3161 36.5587 18.8787 37.1213C19.4413 37.6839 20.2044 38 21 38H35C35.7956 38 36.5587 37.6839 37.1213 37.1213C37.6839 36.5587 38 35.7956 38 35V27H18V35Z" fill="white"/>
</svg>
