<svg width="56" height="56" viewBox="0 0 56 56" fill="none" xmlns="http://www.w3.org/2000/svg">
<rect width="56" height="56" rx="28" fill="#E26F80"/>
<path d="M38.3361 29.7937V30.8875C38.3361 31.1828 38.1064 31.4234 37.8001 31.4343H36.2032C35.6236 31.4343 35.0986 31.0078 35.0548 30.439C35.022 30.1 35.1532 29.7828 35.372 29.564C35.5689 29.3562 35.8423 29.2468 36.1376 29.2468H37.7892C38.1064 29.2578 38.3361 29.4984 38.3361 29.7937Z" fill="white"/>
<path d="M34.5516 28.7546C34.0047 29.2906 33.7422 30.089 33.9609 30.9203C34.2453 31.9375 35.2406 32.5828 36.2906 32.5828H37.2422C37.8437 32.5828 38.3359 33.075 38.3359 33.6765V33.8843C38.3359 36.1484 36.4875 37.9968 34.2234 37.9968H21.6672C19.4031 37.9968 17.5547 36.1484 17.5547 33.8843V26.5234C17.5547 25.1781 18.2 23.9859 19.1953 23.2421C19.8844 22.7171 20.7375 22.4109 21.6672 22.4109H34.2234C36.4875 22.4109 38.3359 24.2593 38.3359 26.5234V27.0046C38.3359 27.6062 37.8437 28.0984 37.2422 28.0984H36.1266C35.5141 28.0984 34.9562 28.339 34.5516 28.7546Z" fill="white"/>
<path d="M32.5935 20.1469C32.8888 20.4422 32.6372 20.9016 32.2216 20.9016L23.8216 20.8906C23.3404 20.8906 23.0888 20.3 23.4388 19.9609L25.2107 18.1781C26.7091 16.6906 29.1372 16.6906 30.6357 18.1781L32.5497 20.1141C32.5607 20.125 32.5825 20.1359 32.5935 20.1469Z" fill="white"/>
</svg>
