<svg width="70" height="70" viewBox="0 0 70 70" fill="none" xmlns="http://www.w3.org/2000/svg">
<rect width="70" height="70" rx="35" fill="#5C5FEF"/>
<path d="M21 32.7313V40.7953C21 43.1175 22.6312 45 24.6434 45H44.3566C46.3688 45 48 43.1175 48 40.7953V32.7313C48 32.3274 47.7163 32 47.3664 32H21.6336C21.2837 32 21 32.3274 21 32.7313ZM27.7412 37.85H26.0515C25.4391 37.85 24.9426 37.2771 24.9426 36.5703C24.9426 35.8636 25.4391 35.2906 26.0515 35.2906H27.7412C28.3536 35.2906 28.8501 35.8636 28.8501 36.5703C28.8501 37.2771 28.3536 37.85 27.7412 37.85Z" fill="white"/>
<path d="M48 29.2969V29.043C48 26.8101 46.3688 25 44.3566 25H24.6434C22.6312 25 21 26.8101 21 29.043V29.2969C21 29.6852 21.2837 30 21.6336 30H47.3664C47.7163 30 48 29.6852 48 29.2969Z" fill="white"/>
<circle cx="47" cy="44" r="6" fill="#5C5FEF"/>
<circle cx="47" cy="44" r="4" fill="white"/>
<rect x="46.5498" y="42" width="0.9" height="4" rx="0.45" fill="#5C5FEF"/>
<rect x="49" y="43.55" width="0.9" height="4" rx="0.45" transform="rotate(90 49 43.55)" fill="#5C5FEF"/>
</svg>
