<svg width="56" height="56" viewBox="0 0 56 56" fill="none" xmlns="http://www.w3.org/2000/svg">
<rect width="56" height="56" rx="28" fill="#B67FAA"/>
<path d="M28 17C21.8571 17 17 21.8571 17 28C17 34 21.8571 39 28 39C34 39 39 34.1429 39 28C38.8571 21.8571 34 17 28 17ZM34.1429 32.2857H32.1429V31.5714C32.1429 28.4286 31.1429 26.7143 29.1429 26.2857H28.8571V32.4286H27V26.1429H26.7143C24.5714 26.5714 23.7143 28.4286 23.7143 31.5714V32.2857H21.7143V31.5714C21.7143 27.4286 23.4286 25 26.8571 24.2857H27V22.5714H29V24.2857H29.2857C32.7143 25 34.1429 27.4286 34.1429 31.5714V32.2857Z" fill="white"/>
</svg>
