<svg width="70" height="70" viewBox="0 0 70 70" fill="none" xmlns="http://www.w3.org/2000/svg">
<g clip-path="url(#clip0_3518_21006)">
<rect width="70" height="70" rx="35" fill="#0072CD"/>
<g clip-path="url(#clip1_3518_21006)">
<path d="M51.908 24.758L38.6613 36.0825H36.5162C35.8786 36.3265 35.1875 36.4615 34.4652 36.4615C33.7056 36.4615 32.9787 36.3114 32.3118 36.0408C32.2789 36.0275 32.2458 36.0147 32.2134 36.0008C30.1621 35.1242 28.7084 33.0887 28.7084 30.7045C28.7084 30.2841 28.7549 29.8744 28.8409 29.4794L24.051 20.1452C23.5201 19.1101 22.2501 18.7017 21.2155 19.2328C20.1805 19.7639 19.772 21.0335 20.3031 22.0685L28.7784 38.585V38.8377L26.0759 59.9244C25.9517 60.6414 26.5067 61.2957 27.2288 61.2957H28.8644V76.4717C28.8644 77.8677 29.996 78.9993 31.3919 78.9993C32.7879 78.9993 33.9195 77.8677 33.9195 76.4717V61.2958H36.9027L43.6632 77.4477C44.2046 78.7413 45.6886 79.3402 46.9707 78.8034C48.2585 78.2644 48.8654 76.7836 48.3265 75.4959L42.383 61.2958H43.7229C44.4474 61.2958 45.0003 60.6424 44.8758 59.9245L42.02 48.5L40.131 40.4119L54.6454 27.9601C55.5297 27.2041 55.6336 25.8746 54.8778 24.9903C54.1221 24.1061 52.7923 24.0021 51.908 24.758Z" fill="white"/>
<path d="M34.4651 35.0699C36.8761 35.0699 38.8306 33.1155 38.8306 30.7045C38.8306 28.2935 36.8761 26.339 34.4651 26.339C32.0541 26.339 30.0996 28.2935 30.0996 30.7045C30.0996 33.1155 32.0541 35.0699 34.4651 35.0699Z" fill="white"/>
<rect x="30.9385" y="19.381" width="1.2" height="4" rx="0.6" transform="rotate(-18.4653 30.9385 19.381)" fill="white"/>
<rect x="36.1123" y="19.0011" width="1.2" height="4" rx="0.6" transform="rotate(13.751 36.1123 19.0011)" fill="white"/>
<rect x="40.7227" y="20.8549" width="1.2" height="4" rx="0.6" transform="rotate(39.9811 40.7227 20.8549)" fill="white"/>
<rect x="17" y="49" width="44" height="30" fill="#0072CD"/>
<path d="M27.6907 47.5466C27.8721 46.6396 28.6518 45.9753 29.5761 45.9403L39.6927 45.5571C40.5849 45.5233 41.3915 46.085 41.6692 46.9336L42.1419 48.3779C42.565 49.671 41.6016 51 40.2411 51H29.4396C28.1775 51 27.2309 49.8454 27.4784 48.6078L27.6907 47.5466Z" fill="white"/>
</g>
</g>
<defs>
<clipPath id="clip0_3518_21006">
<rect width="70" height="70" rx="35" fill="white"/>
</clipPath>
<clipPath id="clip1_3518_21006">
<rect width="60" height="60" fill="white" transform="translate(7 19)"/>
</clipPath>
</defs>
</svg>
